<svg xmlns="http://www.w3.org/2000/svg" xmlns:xlink="http://www.w3.org/1999/xlink" width="400" height="400" viewBox="0 0 400 400">
<rect data-name="background" width="100%" height="100%" fill="none"/><g data-name="container" data="container_num:10" fill="#000000" transform="translate(37.19999999999999,37.19999999999999) scale(3.0716983342943256)"><rect xmlns="http://www.w3.org/2000/svg" width="106" height="106" rx="15" ry="15"/></g><g data-name="icon" fill="#FFFFFF" data="id:5599499" transform="translate(162.32717744566756,116.54519956679377) scale(2.092939825807065)">
    <defs/><path class="cls-1" d="M16.86,20.29V34H4.29a2.33,2.33,0,0,1-1.62-.67A2.3,2.3,0,0,1,2,31.71V19.14H15.71A1.14,1.14,0,0,1,16.86,20.29Z"/><path class="cls-1" d="M11.15,8.85H24.86V7.71a1.15,1.15,0,0,1,2.29,0V8.85H34V4.29a2.36,2.36,0,0,0-.66-1.63A2.36,2.36,0,0,0,31.71,2H11.15Z"/><rect x="27.15" y="11.14" width="6.85" height="13.71"/><path class="cls-1" d="M2,8.85H8.86V2H4.29A2.27,2.27,0,0,0,2,4.29V8.85Z"/><polygon class="cls-1" points="24.86 33.99 24.86 27.14 19.14 27.14 19.14 34 24.86 34 24.86 33.99"/><path class="cls-1" d="M19.14,20.29v4.56h5.72V11.14H11.15v1.14a1.15,1.15,0,0,1-2.29,0V11.14H2v5.72H15.71A3.42,3.42,0,0,1,19.14,20.29Z"/><path class="cls-1" d="M27.15,27.14V34h4.56a2.37,2.37,0,0,0,1.63-.67A2.34,2.34,0,0,0,34,31.71V27.14Z"/>
    </g><g data-name="business_name" fill="#FFFFFF" data="id:194" transform="translate(58.93999615623954,194.2175343291198) scale(1.3250046862359257)"><path d="M20.84,16.36c0.72,0,1.28,0.6,1.28,1.36c0,0.72-0.56,1.28-1.28,1.28l-5.36,0l0,20.04c0,0.76-0.6,1.36-1.36,1.36c-0.72,0-1.32-0.6-1.32-1.36l0-21.32c0-0.76,0.6-1.36,1.32-1.36l6.72,0l0,0z M2.16,13.68c-0.76,0-1.36-0.6-1.36-1.32c0-0.76,0.6-1.32,1.36-1.32l18.68,0c0.72,0,1.28,0.56,1.28,1.32c0,0.72-0.56,1.32-1.28,1.32l-18.68,0l0,0z M2.16,19c-0.76,0-1.36-0.56-1.36-1.28c0-0.76,0.6-1.36,1.36-1.36l6.64,0c0.76,0,1.36,0.6,1.36,1.36l0,21.32c0,0.76-0.6,1.36-1.36,1.36c-0.72,0-1.36-0.6-1.36-1.36l0-20.04l-5.28,0l0,0z M31.8,12.32c0-0.72,0.6-1.32,1.32-1.32c0.76,0,1.36,0.6,1.36,1.32l0,9.36l5.32,0l0-9.36c0-0.72,0.6-1.32,1.36-1.32c0.72,0,1.32,0.6,1.32,1.32l0,10.72c0,0.72-0.6,1.32-1.32,1.32l-8.04,0c-0.72,0-1.32-0.6-1.32-1.32l0-10.72l0,0z M42.48,39.08c0,0.72-0.6,1.32-1.32,1.32c-0.76,0-1.36-0.6-1.36-1.32l0-9.36l-5.32,0l0,9.36c0,0.72-0.6,1.32-1.36,1.32c-0.72,0-1.32-0.6-1.32-1.32l0-10.72c0-0.72,0.6-1.32,1.32-1.32l8.04,0c0.72,0,1.32,0.6,1.32,1.32l0,10.72l0,0z M29.12,39.08c0,0.72-0.6,1.32-1.32,1.32c-0.76,0-1.36-0.6-1.36-1.32l0-26.76c0-0.72,0.6-1.32,1.36-1.32c0.72,0,1.32,0.6,1.32,1.32l0,26.76l0,0z M45.16,12.32c0-0.72,0.6-1.32,1.32-1.32c0.76,0,1.36,0.6,1.36,1.32l0,26.76c0,0.72-0.6,1.32-1.36,1.32c-0.72,0-1.32-0.6-1.32-1.32l0-26.76l0,0z M69.44,16.36c0.76,0,1.36,0.56,1.36,1.32c0,0.72-0.6,1.32-1.36,1.32l-7.16,0l0,2.68l4.68,0c0.76,0,1.36,0.6,1.36,1.36c0,0.72-0.6,1.32-1.36,1.32l-6,0c-0.76,0-1.36-0.6-1.36-1.32l0-5.36c0-0.76,0.6-1.32,1.36-1.32l8.48,0l0,0z M66.96,27.04c0.76,0,1.36,0.6,1.36,1.32c0,0.76-0.6,1.36-1.36,1.36l-4.68,0l0,2.64l7.16,0c0.76,0,1.36,0.6,1.36,1.36c0,0.72-0.6,1.32-1.36,1.32l-8.48,0c-0.76,0-1.36-0.6-1.36-1.32l0-5.36c0-0.72,0.6-1.32,1.36-1.32l6,0l0,0z M69.44,37.72c0.76,0,1.36,0.6,1.36,1.36c0,0.72-0.6,1.32-1.36,1.32l-13.84,0c-0.72,0-1.32-0.6-1.32-1.32l0-26.76c0-0.72,0.6-1.32,1.32-1.32l13.84,0c0.76,0,1.36,0.6,1.36,1.32c0,0.76-0.6,1.36-1.36,1.36l-12.48,0l0,24.04l12.48,0l0,0z  M102.68,16.36c0.76,0,1.36,0.56,1.36,1.32c0,0.72-0.6,1.32-1.36,1.32l-7.16,0l0,2.68l4.68,0c0.72,0,1.32,0.6,1.32,1.36c0,0.72-0.6,1.32-1.32,1.32l-6,0c-0.76,0-1.36-0.6-1.36-1.32l0-5.36c0-0.76,0.6-1.32,1.36-1.32l8.48,0l0,0z M100.2,27.04c0.72,0,1.32,0.6,1.32,1.32c0,0.76-0.6,1.36-1.32,1.36l-4.68,0l0,9.36c0,0.72-0.6,1.32-1.32,1.32c-0.76,0-1.36-0.6-1.36-1.32l0-10.72c0-0.72,0.6-1.32,1.36-1.32l6,0l0,0z M90.16,39.08c0,0.72-0.6,1.32-1.32,1.32c-0.76,0-1.32-0.6-1.32-1.32l0-26.76c0-0.72,0.56-1.32,1.32-1.32l13.84,0c0.76,0,1.36,0.6,1.36,1.32c0,0.76-0.6,1.36-1.36,1.36l-12.52,0l0,25.4l0,0z M120.2,24.36c-0.36,0-0.88,0.04-1.32,0c-2.08-0.12-2.16-2.64,0-2.64c1.24,0,2.72,0.2,2.72-1.36c0-0.8-0.64-1.36-1.4-1.36l-4.76,0c-1.76,0-1.76-2.68,0-2.68l4.76,0c2.44,0,4.04,2.04,4.04,4.08c0,2.24-1.84,3.96-4.04,3.96l0,0z M122.68,38.28c1,1.44-1.16,3-2.2,1.56l-3.68-5.32l0,4.56c0,1.76-2.68,1.76-2.68,0l0-8.72c0-1.44,1.68-1.84,2.44-0.84l6.12,8.76l0,0z M111.44,39.08c0,1.76-2.68,1.76-2.68,0l0-26.76c0-0.72,0.64-1.32,1.36-1.32l10.52,0c8.2,0,12.32,10.04,6.56,15.96c-1.16,1.16-2.6,2.04-4.2,2.44l6.2,8.88c1,1.44-1.2,3-2.16,1.56l-7.4-10.6c-0.8-1.04,0-2.2,1-2.2c5.88,0,8.76-7.28,4.64-11.44c-1.2-1.2-2.84-1.92-4.64-1.92l-9.2,0l0,25.4l0,0z M141.44,32.4c-0.72,0-1.32-0.6-1.32-1.36s0.6-1.32,1.32-1.32l1.92,0l-1.2-2.96c-0.24-0.68,0.08-1.48,0.72-1.72c0.72-0.28,1.48,0.04,1.76,0.68l1.96,4.8c0.08,0.16,0.12,0.32,0.12,0.52c0,0.76-0.64,1.36-1.4,1.36l-3.88,0l0,0z M139.48,39.32c-0.24,0.68-1,1-1.72,0.76c-0.68-0.32-1-1.08-0.72-1.76l0.96-2.44c0.24-0.48,0.76-0.84,1.24-0.84l0,0l8.28,0c0.6,0,1.12,0.44,1.28,0.96l0.96,2.32c0.24,0.68-0.04,1.44-0.72,1.76c-0.68,0.24-1.48-0.04-1.76-0.76l-0.64-1.56l-6.48,0l-0.68,1.56l0,0z M133.76,39.32c-0.32,0.68-1.08,1-1.76,0.76c-0.64-0.32-1-1.08-0.76-1.76l10.92-27.28c0.28-0.72,1.08-1.04,1.72-0.76c0.4,0.12,0.64,0.44,0.76,0.76l10.88,27.28c0.28,0.68-0.04,1.44-0.72,1.76c-0.68,0.24-1.48-0.08-1.76-0.76l-9.64-24.28l-9.64,24.28l0,0z M183.72,39.04c0,0.76-0.6,1.36-1.36,1.36s-1.36-0.6-1.36-1.36l0-12.6l-5.48,7.88c-0.44,0.6-1.32,0.76-1.92,0.36c-0.12-0.12-0.24-0.24-0.32-0.36l-5.48-7.88l0,12.6c0,0.76-0.6,1.36-1.4,1.36c-0.72,0-1.32-0.6-1.32-1.36l0-16.92l0,0c0-0.4,0.2-0.84,0.56-1.08c0.6-0.44,1.48-0.28,1.92,0.32l6.8,9.84l6.88-9.8c0.24-0.36,0.64-0.6,1.12-0.6c0.76,0,1.36,0.6,1.36,1.32l0,16.92l0,0z M162.36,39.04c0,0.76-0.6,1.36-1.36,1.36s-1.36-0.6-1.36-1.36l0-27.12c0-0.76,0.6-1.36,1.36-1.36s1.36,0.6,1.36,1.36l0,27.12l0,0z M189.16,39.04c0,0.76-0.6,1.36-1.4,1.36c-0.72,0-1.32-0.6-1.32-1.36l0-27.12c0-0.76,0.6-1.36,1.32-1.36c0.8,0,1.4,0.6,1.4,1.36l0,27.12l0,0z M181.76,11.12c0.44-0.6,1.28-0.76,1.92-0.32c0.6,0.44,0.72,1.28,0.32,1.88l-8.48,12.16c-0.44,0.64-1.32,0.8-1.92,0.32c-0.12-0.08-0.24-0.2-0.32-0.36l-8.48-12.12c-0.4-0.6-0.28-1.44,0.32-1.88s1.48-0.28,1.92,0.32l7.32,10.6l7.4-10.6l0,0z M210.76,16.36c0.76,0,1.36,0.56,1.36,1.32c0,0.72-0.6,1.32-1.36,1.32l-7.16,0l0,2.68l4.68,0c0.76,0,1.36,0.6,1.36,1.36c0,0.72-0.6,1.32-1.36,1.32l-6,0c-0.76,0-1.36-0.6-1.36-1.32l0-5.36c0-0.76,0.6-1.32,1.36-1.32l8.48,0l0,0z M208.28,27.04c0.76,0,1.36,0.6,1.36,1.32c0,0.76-0.6,1.36-1.36,1.36l-4.68,0l0,2.64l7.16,0c0.76,0,1.36,0.6,1.36,1.36c0,0.72-0.6,1.32-1.36,1.32l-8.48,0c-0.76,0-1.36-0.6-1.36-1.32l0-5.36c0-0.72,0.6-1.32,1.36-1.32l6,0l0,0z M210.76,37.72c0.76,0,1.36,0.6,1.36,1.36c0,0.72-0.6,1.32-1.36,1.32l-13.84,0c-0.72,0-1.32-0.6-1.32-1.32l0-26.76c0-0.72,0.6-1.32,1.32-1.32l13.84,0c0.76,0,1.36,0.6,1.36,1.32c0,0.76-0.6,1.36-1.36,1.36l-12.48,0l0,24.04l12.48,0l0,0z"/></g><g data-name="slogan" fill="#FFFFFF" data="id:170" transform="translate(142.7778690100812,250.70628941456448) scale(0.705799351164501)"><path d="M22.5390625,40l-2.05078125-5.8203125l-11.85546875,0l-2.05078125,5.8203125l-5.99609375,0l10.390625-28.22265625l7.16796875,0l10.390625,28.22265625l-5.99609375,0z M10.3515625,29.27734375l8.41796875,0l-4.19921875-11.97265625z M37.421875,23.10546875c1.015625-1.77734375,3.65234375-3.41796875,6.5625-3.41796875l0,5.01953125c-4.2578125,0-6.2890625,1.25-6.2890625,5.5078125l0,9.78515625l-5.6640625,0l0-20.078125l5.390625,0l0,3.18359375z M54.765625,40c-3.90625,0-6.1328125-2.265625-6.1328125-6.26953125l0-9.4921875l-3.9453125,0l0-4.31640625l1.26953125,0c2.12890625,0,3.30078125-0.8203125,3.30078125-3.828125l0-2.65625l5.078125,0l0,6.484375l4.140625,0l0,4.31640625l-4.140625,0l0,8.88671875c0,1.796875,0.87890625,2.59765625,2.32421875,2.59765625l1.81640625,0l0,4.27734375l-3.7109375,0z  M86.46484375,40.390625c-8.30078125,0-14.43359375-5.64453125-14.43359375-14.51171875s6.1328125-14.4921875,14.43359375-14.4921875c6.2890625,0,11.328125,3.22265625,13.33984375,8.57421875l-5.46875,1.9921875c-1.25-3.28125-4.23828125-5.17578125-7.87109375-5.17578125c-4.86328125,0-8.59375,3.3984375-8.59375,9.1015625s3.73046875,9.12109375,8.59375,9.12109375c3.6328125,0,6.62109375-1.9140625,7.87109375-5.1953125l5.46875,1.9921875c-2.01171875,5.3515625-7.05078125,8.59375-13.33984375,8.59375z M103.8671875,40l0-30l5.68359375,0l0,30l-5.68359375,0z M128.671875,19.921875l5.625,0l0,20.078125l-5.33203125,0l-0.13671875-2.421875c-1.40625,1.77734375-3.6328125,2.8125-6.38671875,2.8125c-4.82421875,0-7.48046875-2.51953125-7.48046875-6.953125l0-13.515625l5.64453125,0l0,12.3046875c0,2.65625,1.66015625,3.6328125,3.61328125,3.6328125c2.32421875,0,4.43359375-1.171875,4.453125-4.86328125l0-11.07421875z M151.9140625,19.53125c5.2734375,0,9.6484375,3.90625,9.6484375,10.46875s-4.375,10.46875-9.6484375,10.46875c-2.7734375,0-5.1953125-1.11328125-6.328125-3.0859375l-0.13671875,2.6171875l-5.33203125,0l0-30l5.625,0l0,12.36328125c1.171875-1.81640625,3.515625-2.83203125,6.171875-2.83203125z M150.60546875,35.80078125c2.98828125,0,5.33203125-2.20703125,5.33203125-5.80078125c0-3.61328125-2.34375-5.8203125-5.33203125-5.8203125c-2.96875,0-5.3125,2.3046875-5.3125,5.8203125s2.32421875,5.80078125,5.3125,5.80078125z"/></g></svg>