<svg xmlns="http://www.w3.org/2000/svg" xmlns:xlink="http://www.w3.org/1999/xlink" width="400" height="400" viewBox="0 0 400 400"><defs><linearGradient id="gradient-8" x1="0%" y1="0%" x2="100%" y2="0%">       <stop offset="0%" stop-color="#ad5389"/>       <stop offset="100%" stop-color="#3c1053"/>     </linearGradient></defs>
<rect data-name="background" width="100%" height="100%" fill="none"/><g data-name="container" data="container_num:17" fill="url(#gradient-8)" transform="translate(24,24) scale(7.04)"><circle cx="25" cy="25" r="25"/></g><g data-name="icon" fill="#ffffff" data="id:5599499" transform="translate(115.1647054964062,80.57425170399375) scale(4.71308371557691)">
    <defs/><path class="cls-1" d="M16.86,20.29V34H4.29a2.33,2.33,0,0,1-1.62-.67A2.3,2.3,0,0,1,2,31.71V19.14H15.71A1.14,1.14,0,0,1,16.86,20.29Z"/><path class="cls-1" d="M11.15,8.85H24.86V7.71a1.15,1.15,0,0,1,2.29,0V8.85H34V4.29a2.36,2.36,0,0,0-.66-1.63A2.36,2.36,0,0,0,31.71,2H11.15Z"/><rect x="27.15" y="11.14" width="6.85" height="13.71"/><path class="cls-1" d="M2,8.85H8.86V2H4.29A2.27,2.27,0,0,0,2,4.29V8.85Z"/><polygon class="cls-1" points="24.86 33.99 24.86 27.14 19.14 27.14 19.14 34 24.86 34 24.86 33.99"/><path class="cls-1" d="M19.14,20.29v4.56h5.72V11.14H11.15v1.14a1.15,1.15,0,0,1-2.29,0V11.14H2v5.72H15.71A3.42,3.42,0,0,1,19.14,20.29Z"/><path class="cls-1" d="M27.15,27.14V34h4.56a2.37,2.37,0,0,0,1.63-.67A2.34,2.34,0,0,0,34,31.71V27.14Z"/>
    </g><g data-name="business_name" fill="#ffffff" data="id:194" transform="translate(123.29709994155354,244.36230194605102) scale(1.6166921690301295)"><path d="M20.84,16.36c0.72,0,1.28,0.6,1.28,1.36c0,0.72-0.56,1.28-1.28,1.28l-5.36,0l0,20.04c0,0.76-0.6,1.36-1.36,1.36c-0.72,0-1.32-0.6-1.32-1.36l0-21.32c0-0.76,0.6-1.36,1.32-1.36l6.72,0l0,0z M2.16,13.68c-0.76,0-1.36-0.6-1.36-1.32c0-0.76,0.6-1.32,1.36-1.32l18.68,0c0.72,0,1.28,0.56,1.28,1.32c0,0.72-0.56,1.32-1.28,1.32l-18.68,0l0,0z M2.16,19c-0.76,0-1.36-0.56-1.36-1.28c0-0.76,0.6-1.36,1.36-1.36l6.64,0c0.76,0,1.36,0.6,1.36,1.36l0,21.32c0,0.76-0.6,1.36-1.36,1.36c-0.72,0-1.36-0.6-1.36-1.36l0-20.04l-5.28,0l0,0z M41.6,16.36c0.76,0,1.36,0.56,1.36,1.32c0,0.72-0.6,1.32-1.36,1.32l-7.16,0l0,2.68l4.68,0c0.72,0,1.32,0.6,1.32,1.36c0,0.72-0.6,1.32-1.32,1.32l-6,0c-0.76,0-1.36-0.6-1.36-1.32l0-5.36c0-0.76,0.6-1.32,1.36-1.32l8.48,0l0,0z M39.12,27.04c0.72,0,1.32,0.6,1.32,1.32c0,0.76-0.6,1.36-1.32,1.36l-4.68,0l0,9.36c0,0.72-0.6,1.32-1.32,1.32c-0.76,0-1.36-0.6-1.36-1.32l0-10.72c0-0.72,0.6-1.32,1.36-1.32l6,0l0,0z M29.08,39.08c0,0.72-0.6,1.32-1.32,1.32c-0.76,0-1.32-0.6-1.32-1.32l0-26.76c0-0.72,0.56-1.32,1.32-1.32l13.84,0c0.76,0,1.36,0.6,1.36,1.32c0,0.76-0.6,1.36-1.36,1.36l-12.52,0l0,25.4l0,0z M55.4,32.4c-0.72,0-1.32-0.6-1.32-1.36s0.6-1.32,1.32-1.32l1.92,0l-1.2-2.96c-0.24-0.68,0.08-1.48,0.72-1.72c0.72-0.28,1.48,0.04,1.76,0.68l1.96,4.8c0.08,0.16,0.12,0.32,0.12,0.52c0,0.76-0.64,1.36-1.4,1.36l-3.88,0l0,0z M53.44,39.32c-0.24,0.68-1,1-1.72,0.76c-0.68-0.32-1-1.08-0.72-1.76l0.96-2.44c0.24-0.48,0.76-0.84,1.24-0.84l0,0l8.28,0c0.6,0,1.12,0.44,1.28,0.96l0.96,2.32c0.24,0.68-0.04,1.44-0.72,1.76c-0.68,0.24-1.48-0.04-1.76-0.76l-0.64-1.56l-6.48,0l-0.68,1.56l0,0z M47.72,39.32c-0.32,0.68-1.08,1-1.76,0.76c-0.64-0.32-1-1.08-0.76-1.76l10.92-27.28c0.28-0.72,1.08-1.04,1.72-0.76c0.4,0.12,0.64,0.44,0.76,0.76l10.88,27.28c0.28,0.68-0.04,1.44-0.72,1.76c-0.68,0.24-1.48-0.08-1.76-0.76l-9.64-24.28l-9.64,24.28l0,0z M93.28,11.6c1.6,0.68,0.6,3.12-1.04,2.48c-1.6-0.68-3.28-1-5-1c-7.2,0-12.32,5.44-12.32,12.48c0.04,6.28,4.24,12.4,12.44,12.4c1.72,0,3.32-0.36,4.88-0.96c1.64-0.68,2.64,1.8,1.04,2.44c-1.88,0.76-3.88,1.16-5.92,1.16c-9.96,0-15-7.48-15.04-14.96c-0.04-7.6,4.96-15.2,15.04-15.2c2.04,0,4.04,0.4,5.92,1.16l0,0z M91.44,31.44c1.52-0.8,2.8,1.48,1.24,2.32c-1.72,1-3.6,1.44-5.44,1.4c-4.88-0.08-9.2-3.68-9.2-9.6c0-8.24,8.16-11.88,14.64-8.24c1.56,0.8,0.28,3.16-1.24,2.28c-4.64-2.56-10.76-0.28-10.76,5.96c0,4.4,3.08,6.8,6.52,6.92c1.4,0.04,2.88-0.28,4.24-1.04l0,0z"/></g></svg>