<svg xmlns="http://www.w3.org/2000/svg" xmlns:xlink="http://www.w3.org/1999/xlink" width="400" height="400" viewBox="0 0 400 400"><defs><linearGradient id="gradient-8" x1="0%" y1="0%" x2="100%" y2="0%">       <stop offset="0%" stop-color="#ad5389"/>       <stop offset="100%" stop-color="#3c1053"/>     </linearGradient></defs><g data-name="icon" fill="url(#gradient-8)" data="id:5599499" transform="translate(20.0009441349846, 20.0009441349846) scale(9.999972581938579)">
    <defs/><path class="cls-1" d="M16.86,20.29V34H4.29a2.33,2.33,0,0,1-1.62-.67A2.3,2.3,0,0,1,2,31.71V19.14H15.71A1.14,1.14,0,0,1,16.86,20.29Z"/><path class="cls-1" d="M11.15,8.85H24.86V7.71a1.15,1.15,0,0,1,2.29,0V8.85H34V4.29a2.36,2.36,0,0,0-.66-1.63A2.36,2.36,0,0,0,31.71,2H11.15Z"/><rect x="27.15" y="11.14" width="6.85" height="13.71"/><path class="cls-1" d="M2,8.85H8.86V2H4.29A2.27,2.27,0,0,0,2,4.29V8.85Z"/><polygon class="cls-1" points="24.86 33.99 24.86 27.14 19.14 27.14 19.14 34 24.86 34 24.86 33.99"/><path class="cls-1" d="M19.14,20.29v4.56h5.72V11.14H11.15v1.14a1.15,1.15,0,0,1-2.29,0V11.14H2v5.72H15.71A3.42,3.42,0,0,1,19.14,20.29Z"/><path class="cls-1" d="M27.15,27.14V34h4.56a2.37,2.37,0,0,0,1.63-.67A2.34,2.34,0,0,0,34,31.71V27.14Z"/>
    </g></svg>