<svg viewBox="53.6 144 291.2 113.6" xmlns:xlink="http://www.w3.org/1999/xlink" xmlns="http://www.w3.org/2000/svg" style="max-height: 500px" width="291.2" height="113.6"><defs><linearGradient y2="0%" x2="100%" y1="0%" x1="0%" id="gradient-8">       <stop stop-color="#ad5389" offset="0%"/>       <stop stop-color="#3c1053" offset="100%"/>     </linearGradient></defs>
<rect fill="none" height="100%" width="100%" data-name="background"/><g transform="translate(56.9475123650765,144.85705857266404) scale(3.0635044151249913)" fill="url(#gradient-8)" data-name="icon">
    <defs/><path d="M16.86,20.29V34H4.29a2.33,2.33,0,0,1-1.62-.67A2.3,2.3,0,0,1,2,31.71V19.14H15.71A1.14,1.14,0,0,1,16.86,20.29Z" class="cls-1"/><path d="M11.15,8.85H24.86V7.71a1.15,1.15,0,0,1,2.29,0V8.85H34V4.29a2.36,2.36,0,0,0-.66-1.63A2.36,2.36,0,0,0,31.71,2H11.15Z" class="cls-1"/><rect height="13.71" width="6.85" y="11.14" x="27.15"/><path d="M2,8.85H8.86V2H4.29A2.27,2.27,0,0,0,2,4.29V8.85Z" class="cls-1"/><polygon points="24.86 33.99 24.86 27.14 19.14 27.14 19.14 34 24.86 34 24.86 33.99" class="cls-1"/><path d="M19.14,20.29v4.56h5.72V11.14H11.15v1.14a1.15,1.15,0,0,1-2.29,0V11.14H2v5.72H15.71A3.42,3.42,0,0,1,19.14,20.29Z" class="cls-1"/><path d="M27.15,27.14V34h4.56a2.37,2.37,0,0,0,1.63-.67A2.34,2.34,0,0,0,34,31.71V27.14Z" class="cls-1"/>
    </g><g transform="translate(184.8133049764854,147.71924089722583) scale(1.6166921690301295)" fill="url(#gradient-8)" data-name="business_name"><path d="M20.84,16.36c0.72,0,1.28,0.6,1.28,1.36c0,0.72-0.56,1.28-1.28,1.28l-5.36,0l0,20.04c0,0.76-0.6,1.36-1.36,1.36c-0.72,0-1.32-0.6-1.32-1.36l0-21.32c0-0.76,0.6-1.36,1.32-1.36l6.72,0l0,0z M2.16,13.68c-0.76,0-1.36-0.6-1.36-1.32c0-0.76,0.6-1.32,1.36-1.32l18.68,0c0.72,0,1.28,0.56,1.28,1.32c0,0.72-0.56,1.32-1.28,1.32l-18.68,0l0,0z M2.16,19c-0.76,0-1.36-0.56-1.36-1.28c0-0.76,0.6-1.36,1.36-1.36l6.64,0c0.76,0,1.36,0.6,1.36,1.36l0,21.32c0,0.76-0.6,1.36-1.36,1.36c-0.72,0-1.36-0.6-1.36-1.36l0-20.04l-5.28,0l0,0z M41.6,16.36c0.76,0,1.36,0.56,1.36,1.32c0,0.72-0.6,1.32-1.36,1.32l-7.16,0l0,2.68l4.68,0c0.72,0,1.32,0.6,1.32,1.36c0,0.72-0.6,1.32-1.32,1.32l-6,0c-0.76,0-1.36-0.6-1.36-1.32l0-5.36c0-0.76,0.6-1.32,1.36-1.32l8.48,0l0,0z M39.12,27.04c0.72,0,1.32,0.6,1.32,1.32c0,0.76-0.6,1.36-1.32,1.36l-4.68,0l0,9.36c0,0.72-0.6,1.32-1.32,1.32c-0.76,0-1.36-0.6-1.36-1.32l0-10.72c0-0.72,0.6-1.32,1.36-1.32l6,0l0,0z M29.08,39.08c0,0.72-0.6,1.32-1.32,1.32c-0.76,0-1.32-0.6-1.32-1.32l0-26.76c0-0.72,0.56-1.32,1.32-1.32l13.84,0c0.76,0,1.36,0.6,1.36,1.32c0,0.76-0.6,1.36-1.36,1.36l-12.52,0l0,25.4l0,0z M55.4,32.4c-0.72,0-1.32-0.6-1.32-1.36s0.6-1.32,1.32-1.32l1.92,0l-1.2-2.96c-0.24-0.68,0.08-1.48,0.72-1.72c0.72-0.28,1.48,0.04,1.76,0.68l1.96,4.8c0.08,0.16,0.12,0.32,0.12,0.52c0,0.76-0.64,1.36-1.4,1.36l-3.88,0l0,0z M53.44,39.32c-0.24,0.68-1,1-1.72,0.76c-0.68-0.32-1-1.08-0.72-1.76l0.96-2.44c0.24-0.48,0.76-0.84,1.24-0.84l0,0l8.28,0c0.6,0,1.12,0.44,1.28,0.96l0.96,2.32c0.24,0.68-0.04,1.44-0.72,1.76c-0.68,0.24-1.48-0.04-1.76-0.76l-0.64-1.56l-6.48,0l-0.68,1.56l0,0z M47.72,39.32c-0.32,0.68-1.08,1-1.76,0.76c-0.64-0.32-1-1.08-0.76-1.76l10.92-27.28c0.28-0.72,1.08-1.04,1.72-0.76c0.4,0.12,0.64,0.44,0.76,0.76l10.88,27.28c0.28,0.68-0.04,1.44-0.72,1.76c-0.68,0.24-1.48-0.08-1.76-0.76l-9.64-24.28l-9.64,24.28l0,0z M93.28,11.6c1.6,0.68,0.6,3.12-1.04,2.48c-1.6-0.68-3.28-1-5-1c-7.2,0-12.32,5.44-12.32,12.48c0.04,6.28,4.24,12.4,12.44,12.4c1.72,0,3.32-0.36,4.88-0.96c1.64-0.68,2.64,1.8,1.04,2.44c-1.88,0.76-3.88,1.16-5.92,1.16c-9.96,0-15-7.48-15.04-14.96c-0.04-7.6,4.96-15.2,15.04-15.2c2.04,0,4.04,0.4,5.92,1.16l0,0z M91.44,31.44c1.52-0.8,2.8,1.48,1.24,2.32c-1.72,1-3.6,1.44-5.44,1.4c-4.88-0.08-9.2-3.68-9.2-9.6c0-8.24,8.16-11.88,14.64-8.24c1.56,0.8,0.28,3.16-1.24,2.28c-4.64-2.56-10.76-0.28-10.76,5.96c0,4.4,3.08,6.8,6.52,6.92c1.4,0.04,2.88-0.28,4.24-1.04l0,0z"/></g><g transform="translate(185.78699139958857,219.26519587590087) scale(0.4091743075273931)" fill="url(#gradient-8)" data-name="slogan"><path d="M20.01953125,11.77734375l0,5.15625l-6.69921875,0l0,23.06640625l-5.80078125,0l0-23.06640625l-6.73828125,0l0-5.15625l19.23828125,0z M35.859375,19.53125c4.4921875,0,7.1875,2.5,7.1875,7.51953125l0,12.94921875l-5.64453125,0l0-12.03125c0-2.94921875-1.640625-3.92578125-3.65234375-3.92578125c-2.08984375,0-4.375,1.03515625-4.4140625,4.8828125l0,11.07421875l-5.625,0l0-30l5.625,0l0,12.32421875c1.42578125-1.73828125,3.671875-2.79296875,6.5234375-2.79296875z M67.34375,29.66796875l-0.05859375,1.34765625l-14.8828125,0c0.234375,3.33984375,2.4609375,4.94140625,5.13671875,4.94140625c2.01171875,0,3.57421875-0.9375,4.3359375-2.71484375l5.15625,0.76171875c-1.328125,4.0625-4.94140625,6.38671875-9.453125,6.38671875c-6.484375,0-10.72265625-3.828125-10.72265625-10.4296875s4.35546875-10.46875,10.546875-10.46875c5.68359375,0,9.921875,3.14453125,9.94140625,10.17578125z M57.44140625,23.4765625c-2.55859375,0-4.3359375,1.19140625-4.8828125,3.8671875l9.21875,0c-0.29296875-2.55859375-2.03125-3.8671875-4.3359375-3.8671875z  M99.39453125,16.93359375l-10.7421875,0l0,6.40625l9.27734375,0l0,5.09765625l-9.27734375,0l0,11.5625l-5.8984375,0l0-28.22265625l16.640625,0l0,5.15625z M109.04296875,23.10546875c1.015625-1.77734375,3.65234375-3.41796875,6.5625-3.41796875l0,5.01953125c-4.2578125,0-6.2890625,1.25-6.2890625,5.5078125l0,9.78515625l-5.6640625,0l0-20.078125l5.390625,0l0,3.18359375z M135.37109375,34.55078125c0,2.4609375,0.234375,4.0234375,0.48828125,4.90234375l0,0.546875l-5.25390625,0l-0.44921875-2.1875c-1.50390625,1.81640625-4.1015625,2.578125-6.4453125,2.578125c-3.1640625,0-6.25-1.40625-6.25-5.5859375c0-4.16015625,3.10546875-5.56640625,7.3046875-6.484375l3.30078125-0.7421875c1.42578125-0.33203125,1.93359375-0.8203125,1.93359375-1.640625c0-1.97265625-1.796875-2.51953125-3.37890625-2.51953125c-2.03125,0-3.57421875,0.80078125-3.92578125,3.06640625l-4.98046875-0.8984375c0.83984375-4.16015625,3.88671875-6.0546875,9.21875-6.0546875c4.0234375,0,8.4375,1.19140625,8.4375,7.24609375l0,7.7734375z M125.46875,36.58203125c2.67578125,0,4.82421875-1.77734375,4.82421875-5.76171875l-4.765625,1.34765625c-1.5625,0.37109375-2.6953125,0.91796875-2.6953125,2.265625c0,1.4453125,1.19140625,2.1484375,2.63671875,2.1484375z M164.62890625,19.53125c4.296875,0,7.0703125,2.1875,7.0703125,6.30859375l0,14.16015625l-5.625,0l0-12.55859375c0-2.36328125-1.484375-3.3984375-3.1640625-3.3984375c-2.01171875,0-3.7890625,1.15234375-3.7890625,4.62890625l0,11.328125l-5.68359375,0l0-12.5c0-2.40234375-1.4453125-3.45703125-3.22265625-3.45703125c-1.953125,0-3.76953125,1.15234375-3.76953125,4.921875l0,11.03515625l-5.60546875,0l0-20.078125l5.60546875,0l0,2.36328125c1.328125-1.77734375,3.359375-2.75390625,5.8203125-2.75390625c2.91015625,0,5.09765625,1.0546875,6.15234375,3.0078125c1.40625-2.01171875,3.5546875-3.0078125,6.2109375-3.0078125z M196.0546875,29.66796875l-0.05859375,1.34765625l-14.8828125,0c0.234375,3.33984375,2.4609375,4.94140625,5.13671875,4.94140625c2.01171875,0,3.57421875-0.9375,4.3359375-2.71484375l5.15625,0.76171875c-1.328125,4.0625-4.94140625,6.38671875-9.453125,6.38671875c-6.484375,0-10.72265625-3.828125-10.72265625-10.4296875s4.35546875-10.46875,10.546875-10.46875c5.68359375,0,9.921875,3.14453125,9.94140625,10.17578125z M186.15234375,23.4765625c-2.55859375,0-4.3359375,1.19140625-4.8828125,3.8671875l9.21875,0c-0.29296875-2.55859375-2.03125-3.8671875-4.3359375-3.8671875z  M230.3515625,40l-2.05078125-5.8203125l-11.85546875,0l-2.05078125,5.8203125l-5.99609375,0l10.390625-28.22265625l7.16796875,0l10.390625,28.22265625l-5.99609375,0z M218.1640625,29.27734375l8.41796875,0l-4.19921875-11.97265625z M245.234375,23.10546875c1.015625-1.77734375,3.65234375-3.41796875,6.5625-3.41796875l0,5.01953125c-4.2578125,0-6.2890625,1.25-6.2890625,5.5078125l0,9.78515625l-5.6640625,0l0-20.078125l5.390625,0l0,3.18359375z M262.578125,40c-3.90625,0-6.1328125-2.265625-6.1328125-6.26953125l0-9.4921875l-3.9453125,0l0-4.31640625l1.26953125,0c2.12890625,0,3.30078125-0.8203125,3.30078125-3.828125l0-2.65625l5.078125,0l0,6.484375l4.140625,0l0,4.31640625l-4.140625,0l0,8.88671875c0,1.796875,0.87890625,2.59765625,2.32421875,2.59765625l1.81640625,0l0,4.27734375l-3.7109375,0z  M294.27734375,40.390625c-8.30078125,0-14.43359375-5.64453125-14.43359375-14.51171875s6.1328125-14.4921875,14.43359375-14.4921875c6.2890625,0,11.328125,3.22265625,13.33984375,8.57421875l-5.46875,1.9921875c-1.25-3.28125-4.23828125-5.17578125-7.87109375-5.17578125c-4.86328125,0-8.59375,3.3984375-8.59375,9.1015625s3.73046875,9.12109375,8.59375,9.12109375c3.6328125,0,6.62109375-1.9140625,7.87109375-5.1953125l5.46875,1.9921875c-2.01171875,5.3515625-7.05078125,8.59375-13.33984375,8.59375z M311.6796875,40l0-30l5.68359375,0l0,30l-5.68359375,0z M336.484375,19.921875l5.625,0l0,20.078125l-5.33203125,0l-0.13671875-2.421875c-1.40625,1.77734375-3.6328125,2.8125-6.38671875,2.8125c-4.82421875,0-7.48046875-2.51953125-7.48046875-6.953125l0-13.515625l5.64453125,0l0,12.3046875c0,2.65625,1.66015625,3.6328125,3.61328125,3.6328125c2.32421875,0,4.43359375-1.171875,4.453125-4.86328125l0-11.07421875z M359.7265625,19.53125c5.2734375,0,9.6484375,3.90625,9.6484375,10.46875s-4.375,10.46875-9.6484375,10.46875c-2.7734375,0-5.1953125-1.11328125-6.328125-3.0859375l-0.13671875,2.6171875l-5.33203125,0l0-30l5.625,0l0,12.36328125c1.171875-1.81640625,3.515625-2.83203125,6.171875-2.83203125z M358.41796875,35.80078125c2.98828125,0,5.33203125-2.20703125,5.33203125-5.80078125c0-3.61328125-2.34375-5.8203125-5.33203125-5.8203125c-2.96875,0-5.3125,2.3046875-5.3125,5.8203125s2.32421875,5.80078125,5.3125,5.80078125z"/></g></svg>